<?xml version="1.0" encoding="utf-8"?>
<!-- Generator: Adobe Illustrator 21.0.0, SVG Export Plug-In . SVG Version: 6.00 Build 0)  -->
<!DOCTYPE svg PUBLIC "-//W3C//DTD SVG 1.1//EN" "http://www.w3.org/Graphics/SVG/1.1/DTD/svg11.dtd">
<svg version="1.1" id="Layer_1" xmlns="http://www.w3.org/2000/svg" xmlns:xlink="http://www.w3.org/1999/xlink" x="0px" y="0px"
	 viewBox="0 0 264.8 128.8" style="enable-background:new 0 0 264.8 128.8;" xml:space="preserve">
<style type="text/css">
	.st0{fill:#7C7834;}
	.st1{fill:#DC6F27;}
	.st2{fill:#FFFFFF;}
</style>
<g>
	<g id="Stove">
		<path class="st0" d="M134.6,112.6l1-3.4c1.3,0.5,2.4,0.7,3.6,0.5c1.5-0.3,2.8-1.3,3.2-2.9l0-0.1c0.4-1.3,0.2-2.1-1.3-4.1
			c-2-2.7-2.7-3.9-2-6.4l0-0.1c0.9-3.3,4-6,7.1-6.7c1.6-0.3,2.6-0.3,3.5,0l-1,3.3c-1.1-0.5-1.9-0.6-3-0.4c-1.4,0.3-2.7,1.4-3.1,2.8
			l0,0.1c-0.4,1.3-0.1,1.8,1.4,3.8c2.2,2.9,2.6,4.2,1.9,6.7l0,0.1c-0.9,3.3-4.1,6.1-7.2,6.8C137,113.1,135.7,112.9,134.6,112.6z"/>
		<path class="st0" d="M155.3,90.5l-3.3,0.7l0.8-3l9.9-2.1l-0.8,3l-3.2,0.7l-5.5,19.6l-3.4,0.7L155.3,90.5z"/>
		<path class="st0" d="M162,97.3l0.3-1c2.2-7.6,5.7-11.6,9.4-12.4c3.7-0.8,5.2,2.1,3.1,9.7l-0.3,1c-2.2,7.6-5.7,11.6-9.4,12.4
			C161.4,107.9,159.8,104.9,162,97.3z M171,95.4l0.3-1c1.7-5.8,1.2-7.9-0.4-7.6c-1.6,0.3-3.4,2.9-5.1,8.8l-0.3,1
			c-1.7,5.8-1.2,7.9,0.4,7.6C167.5,103.8,169.3,101.2,171,95.4z"/>
		<path class="st0" d="M180.2,82.4l3.5-0.8L182,97.3l7.5-16.9l3.4-0.7l-10.9,23.6l-3.5,0.8L180.2,82.4z"/>
		<path class="st0" d="M196.3,78.9l8.9-1.9l-0.8,3l-5.5,1.2l-1.9,6.7l4.9-1.1l-0.8,3l-4.9,1.1l-1.9,6.9l5.6-1.2l-0.8,3l-9.1,1.9
			L196.3,78.9z"/>
	</g>
	<path id="Camp_Can" class="st1" d="M195.2,31.8c2.1-7.3-1.5-11.7-8.1-10.1c-3.6,0.9-7.1,3.1-10.1,6.1c-10.3,10-15.8,21.7-18.1,34.6
		c0,1.8,0,3.5,0.1,5.2c0.5,6.7,5.6,9.7,12.1,7.3c2.6-0.9,5-2.4,7.2-4.3c3.5-3,6.5-6.4,8.2-10.8c1.3-3.4,0.3-5.4-2.6-5.4
		c-0.5,0-1,0.2-1.5,0.2c-0.6,0-0.9,0.4-1.2,1.1c-1,1.9-2,3.8-3.1,5.6c-1.4,2.3-3.1,4.4-5.3,5.8c-2.1,1.3-4.1,1.1-4.8-0.6
		c-0.4-0.9-0.5-1.9-0.6-3c-0.1-3.4,0.8-7,2-10.6c2.5-7.1,5.8-13.8,10.9-19.7c1.6-1.9,3.5-3.7,5.7-4.3c1.5-0.4,2.2,0.2,2,1.9
		c-0.4,3.3-2.2,6.1-4.6,8.5c-1.1,1.2-1.1,1.9-0.8,2.8c0.2,0.5,0.4,1,0.7,1.3c1.3,1.6,3.8,1,6.2-1.3C192.4,39,194.1,35.5,195.2,31.8z
		 M38.2,86.8c-0.5,0-1.1,0.1-1.6,0.2c-0.6,0-0.9,0.3-1.1,1c-0.6,1.2-1.2,2.4-1.9,3.6c-1.6,2.9-3.5,5.6-6.1,7.5c-2.8,2-5,1.4-5.6-1.4
		c-0.6-2.7,0-5.7,0.8-8.7c1.8-6.9,4.9-13.5,9.1-19.7c1.9-2.8,4-5.4,6.7-7.1c1.2-0.8,2.5-1.5,3.5-0.7c0.9,0.8,0.5,2.3,0,3.7
		c-1,2.7-2.6,5-4.6,7.1c-0.2,0.2-0.5,0.7-0.6,0.9c-0.2,2.8,1.9,4.4,4.4,3.2c0.9-0.4,1.8-1.1,2.6-1.9c3.7-3.8,5.6-8.3,6.2-13
		c0.4-3.8-1-6.3-3.9-7.2c-2.7-0.9-5.7,0-8.8,1.7c-4.7,2.6-8.7,6.5-12.1,11.2c-6.5,8.8-10.6,18.1-12,28.1c0,1.2-0.1,2.5,0,3.8
		c0,0.9,0.2,1.7,0.3,2.6c1.2,5.5,5.5,7.9,11.1,6.1c3.4-1.1,6.6-3.2,9.5-6c2.8-2.7,5.2-5.7,6.6-9.3C42.1,88.9,41.2,86.9,38.2,86.8z
		 M248,52.5c-2.1,2.6-4.4,4.9-7.3,6.3c-4,1.9-6.6,0.2-6.3-4.1c0.2-3.5,1.7-6.9,3-10.4c0.9-2.4,1.8-4.8,2.6-7.2
		c0.2-0.6,0.1-1.6-0.2-1.8c-0.4-0.2-1.3,0.2-1.8,0.6c-1.9,1.5-3.2,3.6-4.5,5.7c-4,6.3-6.4,12.9-7.9,19.6c-0.3,1.2-0.8,1.8-1.8,2
		c-1.3,0.1-2.7,0.5-4,0.4c-1.9-0.2-2.6-1.8-2.2-4.3c0.1-0.5,0.2-1,0.3-1.6c-1.3,1.7-2.5,3.3-3.8,4.7c-1.6,1.8-3.5,3.3-5.6,3.9
		c-2.8,0.7-4.8-0.5-5.1-3.4c0-0.3-0.1-0.6-0.1-0.8c-1.4,1.5-2.6,3.1-4,4.5c-1.9,1.9-4.1,3.2-6.3,3c-2.7-0.2-3.6-2.4-3.8-5
		c-0.6-5.8,1.7-11.7,4.9-17.5c2.1-3.7,4.6-6.9,8-9.3c3.2-2.2,6.4-2.3,7.8-0.2c0.4,0.6,0.6,1.3,0.9,1.9c0.7-0.9,1.3-1.9,2.1-2.8
		c2.2-2.5,5.5-2.7,6.7-0.6c0.1,0.3,0,0.9-0.1,1.3c-2.1,4.8-4.2,9.6-6.2,14.4c-0.6,1.3-0.9,2.7-1.3,4.1c-0.1,0.4-0.2,0.9-0.2,1.3
		c0.1,1.1,0.7,1.3,1.7,0.6c0.6-0.5,1.3-1.2,1.8-1.8c3.6-4.9,6.5-10.2,8.8-15.7c1.2-2.8,1.7-5.7,2.6-8.7c2.2-0.6,4.5-1,6.4-0.2
		c1.1,0.5,1.5,1.7,1.1,3.2c-0.2,0.9-0.5,1.7-0.9,2.9c0.8-1,1.3-1.8,1.9-2.5c2.3-2.9,4.7-5.6,7.9-7.1c2.3-1.1,4.4-1.5,5.8,0.4
		c1,1.3,0.8,3.3,0.2,5.2c-1,3.1-2.3,6.2-3.4,9.4c-0.7,1.9-1.5,3.8-2.1,5.8c-0.3,0.9-0.7,2.1,0.1,2.5c0.8,0.4,1.9-0.3,2.6-1.2
		C247.9,47.7,250.5,49.2,248,52.5z M206.6,42.6c-1.1-0.1-2,0.8-2.8,1.8c-0.4,0.5-0.8,1-1.1,1.5c-1.6,2.5-2.9,5.1-3.7,7.8
		c-0.5,1.8-0.9,3.6-1.2,5.4c-0.2,1-0.1,2.1,0.9,2.2c1,0.2,1.9-0.9,2.6-1.8c3.3-4.5,5.2-9.3,6.1-13.6
		C207.6,43.6,207.3,42.7,206.6,42.6z M105.3,68.7c-4.1,6.2-7.1,12.6-8.5,19.5c-0.6,2.7-0.6,2.7-3,3.2c-0.7,0.1-1.4,0.2-2.1,0.1
		c-2.4-0.2-3.5-1.9-2.6-4.9c1.2-4,2.7-8.1,4-12.1c0.6-1.8,1.2-3.6,1.6-5.3c0.4-1.6-0.4-2-1.8-1c-1.7,1.1-2.9,2.9-4.1,4.6
		c-4,5.9-6.6,12-8.3,18.5c-0.3,1.1-0.6,2.1-0.8,3.2c-0.1,0.6-0.4,1-1,1.1c-1.4,0.2-2.8,0.7-4.1,0.6c-2.4,0-3.3-1.7-2.7-4.5
		c0.1-0.5,0.2-0.9,0.3-1.2c-1.8,2-3.6,4.1-5.5,6.1c-1.5,1.6-3.3,2.4-5.2,2.5c-2.1,0.2-3.6-1.3-3.9-3.6c0-0.3-0.1-0.6-0.1-0.8
		c-1.4,1.5-2.6,3.1-4,4.5c-1.9,1.9-4.1,3.2-6.3,3c-2.7-0.2-3.6-2.4-3.8-5c-0.6-5.8,1.7-11.7,4.9-17.5c2.1-3.7,4.6-6.9,8-9.3
		c3.2-2.2,6.4-2.3,7.8-0.2c0.4,0.6,0.6,1.3,0.9,1.9c0.7-0.9,1.3-1.9,2.1-2.8c2.2-2.5,5.5-2.7,6.7-0.6c0.1,0.3,0,0.9-0.1,1.3
		c-2.1,4.8-4.2,9.6-6.2,14.4c-0.6,1.3-0.9,2.7-1.3,4.1C66,88.9,66,89.4,66,89.8c0,1.2,0.7,1.5,1.8,0.6c0.9-0.8,1.8-1.7,2.4-2.8
		c2.6-4.5,5.4-9,7.7-13.6c1.3-2.5,1.7-5.3,2.5-8c0.2-0.5,0.3-1.1,0.4-1.7c2.1-0.6,4.1-0.9,5.9-0.5c1.7,0.4,2.1,1.8,1.4,4.3
		c-0.2,0.6-0.3,1.1-0.4,1.8c0.5-0.6,0.9-1.3,1.4-1.9c2.2-3,4.6-5.8,7.8-7.4c2.7-1.4,5.1-1.1,6.1,0.8c0.8,1.7,0.5,3.7,0.1,5.8
		c0,0.2-0.1,0.4-0.1,0.6c0,0,0,0.1,0,0.1c1.3-1.8,2.6-3.5,4-5.2c2-2.4,4.1-4.6,6.8-5.7c1.2-0.5,2.4-0.8,3.5-0.8
		c2.2,0,3.4,1.9,2.8,4.8c-0.6,2.5-1.5,5.1-2.4,7.7c-0.9,2.5-2,5-3,7.5c-0.3,0.9-0.5,1.7-0.7,2.6c-0.3,1.5,0.6,2,1.8,1.1
		c1-0.7,1.9-1.6,2.7-2.6c3.6-4.6,6.4-9.6,8.8-14.8c1.1-2.5,1.5-5.1,2.2-7.7c0.1-0.3,0.1-0.6,0.2-1c2-0.6,4-1,5.6-0.1
		c1.4,0.7,1.2,2.4,0.9,4.1c0,0.2-0.1,0.4-0.2,0.7c1.4-1.6,2.6-3.3,4-4.8c1.6-1.8,3.5-3.3,5.5-4c3.3-1.2,5.6,0.2,6.1,3.6
		c0.5,3.7-0.6,7.6-2.2,11.6c-0.6,1.4-6.7,15-14.6,18c-2.4,0.8-4.7,1.1-6.1-2.5c-1.1,3.2-2.1,6.2-3,9.2c-0.9,3-1.9,6-2.7,9
		c-0.8,3-1.4,6.1-2.2,9.2c-1.4,0.3-3,0.9-4.4,0.9c-2.6,0.1-3.7-2.1-2.7-5.5c1.5-5,3.2-10.1,4.9-15.1c1.2-3.5,2.5-7.1,3.8-10.6
		c0.1-0.2,0.1-0.4,0.1-0.7c-0.8,1.1-1.5,2.2-2.4,3.3c-2,2.7-4.2,5.2-6.9,7c-1.6,1.1-3.2,1.7-4.8,1.7c-2.6,0-3.8-2.4-3.3-5.5
		c0.7-4.4,2.6-8.8,4.3-13.1c0.5-1.4,1-2.8,1.4-4.2c0.4-1.7-0.5-2.2-1.8-1C107.6,65.8,106.3,67.2,105.3,68.7z M131.7,74.8
		c0.1,1.8,1.2,2.2,2.8,0.9c0.8-0.6,1.5-1.4,2.1-2.3c2.9-4.2,4.8-8.7,5.7-13.4c0-0.4,0.1-0.8,0.1-1.2c0-1.8-1-2.3-2.6-1
		c-0.9,0.7-1.7,1.6-2.4,2.6c-1.8,2.5-3.2,5.2-4.2,8C132.3,70.6,131.6,72.7,131.7,74.8z M61,75.2c-0.8-0.3-1.6,0.4-2.3,1.1
		c-0.2,0.2-0.5,0.5-0.7,0.7c-2,2.4-3.3,5.2-4.4,8c-0.9,2.3-1.6,4.5-1.6,6.8c0,1,0,2,0.9,2.2c1,0.2,1.9-0.8,2.6-1.8
		c3.3-4.5,5.2-9.3,6.2-14.3c0-0.2,0-0.4,0.1-0.6C61.8,76.4,61.8,75.5,61,75.2z"/>
	<g id="Wild_Woods">
		<path class="st2" d="M61.9,43.6l0.3,0.2l0,0.4c0,0,0.1,1.5,0.2,3l0,0c0.1,1.6,0.3,3.3,0.4,3.7l0,0c0.1,0.5,0.2,0.9,0.4,1.1l0,0
			c0.2,0.2,0.4,0.5,0.9,0.7l0,0c1,0.4,6.8,2.6,15,2.6l0,0c2.1,0,4.3-0.1,6.6-0.5l0,0c12.4-1.8,21.6-8.3,29.5-13.8l0,0
			c6.9-4.8,14.5-6.6,19.1-6.6l0,0c0.8,0,1.5,0,2.1,0.1l0,0l0.8,0.1l-0.3,0.8c0,0-0.1,0.4-0.3,0.9l0,0c-0.1,0.5-0.2,1.2-0.2,1.7l0,0
			c0,0.2,0,0.4,0,0.5l0,0c0,0.1,0.1,0.2,0.1,0.2l0,0c0.6,0.7,4,3,9.7,4l0,0c1,0.2,2,0.3,2.9,0.3l0,0c3.1,0,5.9-0.8,7-1.4l0,0
			c0.5-0.3,0.9-0.5,1.2-0.7l0,0c0.3-0.2,0.4-0.3,0.4-0.4l0,0c0,0,0,0,0,0l0,0c0-0.1-0.1-0.2-0.2-0.3l0,0c-0.6-0.6-1.8-1.8-2.9-3l0,0
			c-1.1-1.3-2.2-2.6-2.5-3.7l0,0L152,33l0.3-0.3c0,0,0.3-0.3,0.8-0.8l0,0c0.5-0.5,1.1-1.3,1.8-2.2l0,0c1.4-1.8,2.8-4.2,3.4-6.3l0,0
			c0.1-0.3,0.1-0.5,0.1-0.6l0,0c0,0,0,0,0,0l0,0c-0.1,0-0.3,0.1-0.4,0.2l0,0l-0.4-0.6l0.4,0.6c-0.8,0.5-2.7,1.3-5.3,1.3l0,0
			c-1.7,0-3.7-0.4-5.7-1.6l0,0l-0.4-0.2l0.1-0.5c0,0,0.6-4.3,0.7-5.5l0,0c0,0,0-0.1,0-0.2l0,0c0-1-0.6-2.1-2.2-2.8l0,0
			c-0.8-0.3-6.2-2.3-13.3-2.3l0,0c-4.8,0-10.4,0.9-16,3.7l0,0c-12.7,6.4-26,17.6-41.1,17.6l0,0c-1.6,0-3.3-0.1-5-0.4l0,0l-0.5-0.1
			L69,31.6c0,0-0.5-3.2-0.5-4.7l0,0c0-0.4-0.2-0.7-0.5-1l0,0c-0.3-0.3-0.8-0.5-1.3-0.7l0,0c-0.4-0.2-1.2-0.6-2.5-1l0,0
			c-1.3-0.4-3-0.8-5.1-0.8l0,0c-3.1,0-6.9,0.8-11.2,3.6l0,0c-0.4,0.3-0.6,0.5-0.7,0.6l0,0c0,0,0.1,0.1,0.2,0.1l0,0
			c0.8,0.4,4.7,2.6,6.7,5.8l0,0l0.2,0.3l-0.2,0.3c0,0-0.8,1.7-1.7,3.8l0,0c-0.9,2-1.8,4.4-1.9,5.5l0,0c0,0.2,0,0.3,0,0.4l0,0
			c0,0.2,0,0.3,0,0.4l0,0c0,0,0,0,0,0l0,0c0.2,0,1-0.3,1.6-0.6l0,0c0.8-0.3,2.7-1.4,5.2-1.4l0,0C58.9,42.3,60.4,42.7,61.9,43.6
			L61.9,43.6z"/>
		<path class="st0" d="M145.6,39c2,0.8,5,1.1,5,1.1c-1.6,0.5-5.6,0-6.2-0.5C143.8,39,144.1,38.4,145.6,39z M159.8,21.8
			c0.4,0.4,0.6,1,0.4,1.8c-1.2,4.6-6.9,9.8-6.9,9.8c0.5,1.7,4.1,5.4,5.3,6.5c1.2,1.1,0.1,1.7-1.5,2.6c-1.6,0.9-6,2.1-10.5,1.3
			c-6-1.1-9.4-3.4-10.2-4.3c-0.8-0.9,0.2-4,0.2-4s-1.3-0.9-5.7-0.2c-4.4,0.7-11,2.7-18.6,8c-6.2,4.3-11.5,8-17.6,10.4c0,0,0,0,0,0
			c-0.5,0.2-0.9,0.3-1.4,0.5c0,0,0,0,0,0.1c-0.5,0.2-1,0.3-1.5,0.5c0,0,0-0.1,0-0.1c-1.9,0.5-4,1-6.1,1.3
			c-11.8,1.7-20.8-1.6-22.1-2.2c-1.3-0.5-1.5-1.3-1.8-2.3c-0.3-1-0.6-6.9-0.6-6.9c-4.1-2.4-7.7-0.3-9,0.3c-1.3,0.5-3,1.5-2.7-1
			c0.3-2.5,3.7-9.6,3.7-9.6c-1.8-3-5.7-5.2-6.4-5.5c-0.7-0.3-1.2-0.9,0.4-2c10.5-6.8,18.6-2.3,19.6-1.9c0.8,0.3,1.6,0.7,2,1.4
			l0.6,4.2c0,0,0,0,0,0c0.1,0.8,0.2,1.4,0.2,1.4s-0.1,0.1,0.7,0.1c4.9,0.7,9.6,0.1,14.2-1.3c5.9-1.6,11.8-5,18-8.6l3.8-2.2
			c4.8-2.7,9.8-5.3,15.2-7.2c3.3-1.2,6.8-1.7,10-1.9c7.6-0.1,13.3,1.4,14.2,1.8c2,0.8,3.4,2.4,3.3,3.7c0,0.6-0.2,2.4-0.4,3.7
			c0,0-0.3,2.6,2,3.3c3.4,1.1,5.8-0.4,6.9-1.1C158.7,21,159.8,21.8,159.8,21.8z M53.9,27.3c0.8-0.5,2.3-1,3.7-1.1
			c1.4-0.1,3-0.1,4.6-0.2c1.6-0.1,0.7-1.3-5.3-1c-3,0.1-5.8,1.5-7,2.1c-1.2,0.6-0.6,0.8,0.4,1.5c1,0.7,4,3.7,5,4.7
			c1,1-1.9,5.7-2.9,7.5c-1,1.8,1.1,1,2.2,0.8c1.1-0.2,3-0.2,4.8,0.1c1.7,0.3,1.3-0.7,1.3-1.1c0-0.4-0.8-7.6-0.8-8.7
			c-0.1-1.1,0.4-0.6-0.9-0.8c-1.3-0.2-0.4-0.7,0.5-1c1-0.3-0.3-0.8-1.7-0.9c-1.4-0.1-1.2-0.4,0.9-0.8c2.1-0.4,2.3-0.5,1.9-0.9
			c-0.3-0.4-2.1-0.5-3.9-0.3C54.7,27.5,53.2,27.8,53.9,27.3z M144.4,33.9c0,0,0.8,0.1-0.2-0.7c-0.9-0.7-3.9-1.2-2.7-1.5
			c0,0,3.3,0.3,3.3-0.2c0-0.5-1.9-1.3-2.4-1.8c-0.5-0.4,2.6-0.2,3.1,0c0,0-1.1-1.7-2-2.1c0,0,1.5-0.3,2.1,0c0,0,0,0,0-0.1
			c-0.2-0.3-1-1.4-1.8-1.9c0,0,1.1-0.5,1.8-0.2c0,0-1.3-1.7-1.6-2c-0.4-0.3,1.4-0.1,2.1,0c0,0-0.3-0.4-0.3-0.4c0,0,0-0.1-0.1-0.1
			l0,0c0,0,0-0.1-0.1-0.1c0,0,0,0,0-0.1l0,0c0,0-0.1-0.1-0.1-0.2c0,0,0,0,0,0l0,0c-0.2-0.3-0.5-0.6-0.8-0.9l0,0c0,0,0,0,0,0
			c-0.1-0.1-0.3-0.2-0.4-0.3c0,0,0,0-0.1,0c-0.1-0.1-0.3-0.2-0.5-0.3c0,0,1.4-0.4,2.2-0.1c0,0,0,0,0-0.1c0,0-0.1-0.1-0.1-0.2
			c0,0,0,0-0.1-0.1c0-0.1-0.1-0.1-0.1-0.2c0,0,0,0-0.1-0.1c-0.1-0.1-0.2-0.2-0.2-0.3c0,0,0,0,0,0c-0.1-0.1-0.2-0.2-0.3-0.3
			c0,0-0.1-0.1-0.1-0.1c-0.1-0.1-0.1-0.1-0.2-0.2c0,0-0.1-0.1-0.1-0.1c-0.1-0.1-0.1-0.1-0.2-0.2c-0.1-0.1-0.2-0.2-0.2-0.3
			c-0.1-0.1-0.2-0.2-0.2-0.2c-0.5-0.5,1.2-0.6,2.2-0.3c0,0,0,0,0,0c-0.1-0.2-1.7-2.2-2.3-2.6c-0.7-0.4,2.2,0,2.9,0.3
			c-0.4-1.3-2.7-3.4-13.1-3.9c-0.5,0-0.9,0-1.4,0l0,0c-0.1,0-0.1,0-0.2,0h0c-0.4,0-0.9,0-1.3,0h0c-0.1,0-0.2,0-0.2,0h0
			c-0.4,0-0.9,0-1.3,0.1l0,0c0,0-0.1,0-0.1,0l0,0c-0.4,0-0.9,0.1-1.3,0.1c0,0,0,0,0,0c0,0,0,0,0,0c-0.5,0.1-0.9,0.1-1.4,0.2
			c0,0,0,0-0.1,0l0,0c-0.4,0.1-0.8,0.1-1.3,0.2h0c-0.1,0-0.1,0-0.2,0l0,0c-0.4,0.1-0.9,0.2-1.3,0.3l0,0c0,0,0,0,0,0
			c-0.5,0.1-0.9,0.2-1.4,0.4c0,0,0,0,0,0l0,0c-2.3,0.7-4.7,1.7-7.3,3c0,0,0,0-0.1,0c0,0,0,0,0,0c-2.6,1.3-5.5,2.9-8.8,4.8l0,0
			c-0.3,0.2-0.6,0.4-0.9,0.5C92.9,29.7,80.4,37,61.8,32.5c0,0-0.4,0.7,3.1,1.8c0.9,0.3,0.6,1.2-3.2,0.6c-0.2,0,1.2,1.1,2.1,1.5
			c1.2,0.4-1.8,0.4-2.3,0.3c0,0,1.2,1.4,2.1,1.6c0,0-1.2,0.7-1.8,0.6c0,0,1.6,1.5,2.5,1.8c0,0-1.5,0.4-2.3,0.2c0,0,0,0,0,0.1
			c0.2,0.3,1.1,1.2,2.2,1.6c0,0-1.2,0.4-1.8,0.4c0,0,3,1.6,2.4,1.8c-0.6,0.1-1.5,0.3-2.3,0.2c0,0,1.5,1.3,2.5,1.6c0,0-0.6,0.6-2,0.9
			c0,0,1.3,0.9,2.2,1.4c0.7,0.4-2.4,0.7-2.1,0.9c0.6,0.5,1.4,0.9,1.4,0.9c0.7,0.4,0.8,0.6,0.2,0.6c-0.6,0-0.7,0.4,2.2,1.4
			c2.9,1,11,3.4,22.7,0.1c11.6-3.3,18.9-10.3,27.5-15C125.9,32.9,134.9,31.7,144.4,33.9z M155,25.1c-4.6,0.7-7.5-0.5-7.5-0.5
			s-0.8,6.3-1.1,9.9c-0.3,3.6-2.5,3.3-4.4,3.5c-2.2,0.2-3,0.7,0.1,2.2c5.6,2.6,12.3,1,13.3,0.6c1-0.4,1-0.9,0.3-1.4
			c-0.7-0.5-3.2-2.9-3.7-3.9c-0.6-1-1.7-2.1-0.5-3.6c1.2-1.4,3.8-4.3,4.3-5C156.4,25.7,156.3,24.9,155,25.1z"/>
		<g>
			<path class="st1" d="M90.6,44.2c0,0-0.3,1-0.9,1.7c-0.4,0.4-0.6,0.4-1.1,0.6c-0.6,0.1-0.9-0.3-1-0.9c-0.2-0.5-0.7-4.7-0.7-5.5
				c0-0.8,0.8-1.5,0.8-1.5L87.6,38c0,0-1.3,0.3-1.8,0.4c-0.6,0.1-1.9,0.5-1.9,0.5l0.1,0.4c0,0,0.8,0.4,0.9,1.1
				c0.6,2.2,0.8,5.8,0.8,6.5c0,0.6-0.7,1.3-0.7,1.3l0.1,0.5c0,0,1.7-0.3,2.3-0.4c2.2-0.5,3-0.7,3.9-1.1c0-1-0.1-2.9-0.1-2.9
				L90.6,44.2z"/>
			<path class="st1" d="M94.9,35.3c-0.8-0.2-1.5,0-2.8,0.7c-0.9,0.5-2.8,1.2-2.8,1.2l0.2,0.4c0,0,0.7,0,1.2,0.6
				c0.2,0.3,2.5,5.6,2.6,6.4c0.1,0.9-0.3,1.2-0.3,1.2l0.2,0.5c0,0,1.1-0.5,1.6-0.8c0.4-0.2,1-0.5,1.5-0.7c0.8-0.4,1.7-1,2.1-1.9
				c0.7-1.3,0.8-3.4-0.4-5.3C97.2,36.4,96.2,35.6,94.9,35.3z M96.7,42.5c-0.2,0.7-0.7,1-1.1,1.3c-0.3,0.1-0.5,0.1-0.6-0.2l-2.6-6.1
				c-0.1-0.3,0.1-0.5,0.3-0.6c0.4-0.2,0.8-0.2,1.4,0.1c0.8,0.4,1.3,1.1,1.7,1.8C96.8,40.2,97,41.6,96.7,42.5z"/>
			<path class="st1" d="M79.3,37.3c0,0-0.9,0.3-1.8,0.5c-0.7,0.2-1.9,0.3-1.9,0.3l0,0.4c0,0,0.7,0.4,0.6,1.5c0,1.1-1,4.2-0.7,6.7
				l-0.1,0c-1.5-2.7-1.6-5.6-1.4-7.1c-0.4,0-1.5-0.1-1.7-0.1c0,1-1.4,5.2-1.8,6.6l-0.1,0c0-1.3-0.2-2.4-0.2-3.7
				c-0.1-1.7-0.2-2.9,0.1-3.5c0.2-0.6,0.8-0.8,0.8-0.8l0.1-0.4c0,0-0.9,0-2.1-0.2c-0.9-0.2-1.8-0.5-1.8-0.5l-0.1,0.3
				c0,0,0.7,0.6,0.8,1.5c0.2,1.5,0.4,3.2,0.5,4.6c0.2,1.9,0.2,3.2,0.2,5.3c0.6,0.3,1.9,0.5,2.2,0.4c0.6-1.8,1.3-3.9,2-6.3l0.1,0
				c0.5,2.1,1.1,4.8,2.4,7c0.9,0.1,2.5-0.3,2.5-0.3c-2-4.7,0.1-9.3,0.3-10c0.4-1.2,1.5-2,1.5-2L79.3,37.3z"/>
			<path class="st1" d="M82.1,47.3c-0.1-0.6-0.4-4.8-0.2-6.6c0.1-0.7,0.8-1.3,0.8-1.3l0-0.4c0,0-1,0.2-1.6,0.2c-0.6,0.1-2,0.3-2,0.3
				l0,0.4c0,0,0.7,0.3,0.8,0.8c0.1,0.5,0.3,6.3,0.1,7c-0.2,0.7-0.8,0.9-0.8,0.9l0,0.5c0,0,1.3,0,1.9-0.1c0.7-0.1,2.1-0.3,2.1-0.3
				l0-0.4C83.1,48.3,82.2,48.1,82.1,47.3z"/>
			<path class="st1" d="M109.9,24.6l-0.5-0.4c0,0-0.3,0.5-0.9,1c-0.9,0.7-1.8,1-1.8,1l0.1,0.5c0,0,0.6,0,0.9,1
				c0.1,0.3,0.7,3.1,0.9,4.2c0.2,0.8,0.5,2,0.9,2.9l0,0.1c-1.5-1.6-2.6-2.5-3.2-5c-0.3,0.2-1.3,0.7-1.5,0.9c0.5,1.8,0.1,4.9,0.2,6.4
				l-0.1,0c-0.4-1.2-1.3-2.6-1.8-3.7c-1.1-2.4-0.2-3.3-0.2-3.3l-0.3-0.6c0,0-1.2,0.8-2,1.1c-0.5,0.2-2.1,1-2.1,1l0.1,0.5
				c0,0,1.1,0,1.8,0.8c0.9,1,2.9,4.9,3.9,8.3c0.5-0.2,1.5-0.6,2-1.1c0-2-0.1-4.4-0.3-7l0.1,0c0.9,1.9,3.2,3.9,4.3,4.7
				c0.8-0.4,1.5-1.2,1.9-1.7c-1.9-1.7-2.6-5.9-3-9.2C109.1,25.7,109.9,24.6,109.9,24.6z"/>
			<path class="st1" d="M125.8,22.4c-0.2-0.9-0.9-2.1-1.8-2.7c-0.6-0.3-1.4-0.4-2-0.2c-0.5,0.2-1,0.3-1.4,1c-0.6,1,0,2.2,0.8,2.3
				c0.7,0.1,1.1-0.3,1.2-0.5l-0.1-0.2c0,0-0.5,0.2-0.8-0.2c-0.3-0.4-0.1-0.9,0.4-1.1c0.3-0.1,0.7,0.1,0.9,0.4
				c0.3,0.4,0.5,1.1,0.7,1.6c0.4,1.8,0.4,3.4,0.1,4.3c-0.2,0.7-0.6,0.8-0.9,0.9c-0.4,0.1-0.8,0-1.1-0.4c-0.4-0.5-0.6-1-0.7-1.5l0,0
				c-0.3-1-0.3-2.1-0.3-2.9c-0.9-0.5-1.3-1.6-1.3-1.6c-0.4,0.5-1.2,2.2-0.5,4.8c0.2,0.7,0.6,1.7,1.3,2.3c0.7,0.6,1.5,0.9,2.7,0.7
				c1.1-0.3,1.9-0.9,2.4-1.7C126,26.5,126.3,24.5,125.8,22.4L125.8,22.4z"/>
			<path class="st1" d="M117.5,26.2c-0.3-0.8-1-1.9-1.9-2.3c-0.6-0.3-1.4-0.3-2-0.1c-0.5,0.2-1,0.4-1.3,1.1c-0.5,1,0.2,2.1,1,2.1
				c0.7,0,1-0.4,1.1-0.6l-0.1-0.2c0,0-0.5,0.2-0.7-0.1c-0.3-0.3-0.2-0.8,0.3-1c0.3-0.1,0.6,0,0.9,0.3c0.3,0.3,0.6,1,0.8,1.4
				c0.6,1.6,0.7,3.1,0.5,4c-0.2,0.6-0.5,0.8-0.8,0.9c-0.3,0.1-0.8,0-1.1-0.3c-0.4-0.4-0.6-0.9-0.8-1.4l0,0c-0.3-0.9-0.5-1.9-0.5-2.7
				c-0.9-0.4-1.4-1.3-1.4-1.3c-0.4,0.5-0.9,2.1-0.1,4.4c0.2,0.7,0.7,1.5,1.4,2c0.7,0.5,1.5,0.7,2.6,0.4c1-0.3,1.7-0.9,2.2-1.8
				C118,29.9,118.2,28.1,117.5,26.2L117.5,26.2z"/>
			<path class="st1" d="M132.2,18.3c-0.6-0.4-1.7-0.4-2.9-0.2c-1,0.2-2.6,0.3-2.6,0.3l0,0.5c0,0,0.6,0.5,0.8,0.9
				c0.2,0.7,0.5,5.3,0.1,6.8c-0.2,0.7-0.7,1.1-0.7,1.1l0,0.6c0,0,1.1-0.2,1.6-0.3c0.4-0.1,1-0.2,1.5-0.2c0.8-0.1,1.8-0.5,2.5-1.2
				c1-1,1.8-3,1.4-5.2C133.7,20.1,133.2,18.9,132.2,18.3z M131.3,25.8c-0.4,0.6-0.9,0.8-1.4,0.9c-0.3,0-0.4-0.1-0.4-0.4
				c0,0-0.2-6.1-0.1-6.5c0.1-0.5,0.2-0.5,0.4-0.6c0.4-0.1,0.7,0,1.2,0.5c0.5,0.6,0.7,1.4,0.9,2.2C132.1,23.6,131.9,25,131.3,25.8z"
				/>
			<path class="st1" d="M137.8,19.7c0.2-0.1,0.5-0.1,0.7-0.1c0.3,0,0.5,0.2,0.7,0.4c0.4,0.4,0.6,1.5,0.6,1.5l0.5,0.1
				c0,0,0.2-1.7,0.3-2.6c-0.3-0.3-0.9-0.5-1.6-0.6c-1.1-0.2-1.8,0-2.5,0.5c-0.6,0.4-1.1,1.1-1.1,2.1c-0.1,1.3,0.6,2.2,1.6,2.9
				c0.8,0.6,1.2,0.8,1.2,1.6c0,0.4-0.2,0.7-0.4,0.8c-0.2,0.1-0.5,0.2-0.9,0.1c-0.4-0.1-0.7-0.2-0.9-0.5c-0.4-0.5-0.7-1.5-0.7-1.5
				l-0.6,0c0,0-0.2,1.7-0.2,2.6c0.4,0.4,1.2,0.6,1.9,0.7c1,0.1,1.8,0.1,2.4-0.4c0.7-0.4,1.2-1.2,1.2-2.4c0-1-0.4-1.8-1.5-2.6
				c-0.9-0.6-1.3-0.9-1.3-1.6C137.4,20.2,137.6,19.8,137.8,19.7z"/>
		</g>
	</g>
</g>
</svg>
